<?xml version="1.0" encoding="UTF-8"?>
<svg xmlns="http://www.w3.org/2000/svg" version="1.1" viewBox="0 0 660 600">
  <!-- Generator: Adobe Illustrator 28.7.1, SVG Export Plug-In . SVG Version: 1.2.0 Build 142)  -->
  <g>
    <g id="bg-white" style="display: none;">
      <rect x="0" y="0" width="660" height="600" style="fill: #fff;"/>
    </g>
    <g id="cat">
      <g style="display: none;">
        <g>
          <path d="M255.54,447.16c-22.43-2.92,10.66,1.41,0,0-23.63-3.08-47.75-3.77-71.25.7-17.7,3.36-36.02,9.42-49.51,21.84-14.4,13.26-22.44,31.81-12.36,52.65,8.66,17.9,35.06,25.52,50.74,20.96,9.27-2.69,11.72-7.99,10.18-14.14-1.3-5.21-6.6-7.35-11.19-9.63-16.2-8.03-22.04-18.53-3.14-26.73,5.12-2.22,10.44-4.01,15.85-5.34,11.43-2.81,24.2-3.12,35.94-3.48,6.1-.19,12.17.05,18.24.67,5.34.55,21.63,2,31.1,3.53,8.7,1.41,1.27-12.19,1.82-21.03.61-9.72-6.76-18.74-16.42-20.02Z"/>
          <path d="M220.74,348.27c25.43-69.59,81.64-91.68,96.53-142.03,3.19,3.55,79.64,20.29,95.74-3.79-4.09,26.55,17.79-24.51,21.86,16,13.05,129.98-10.71,204.09-12.71,245.25,0,0,16.34,25.42-9.37,32.12-22.47,4.51-32.95-4.68-34.29-13.05,0,0,.08,18.74-33.96,12.38-15.22-2.84-17.73-12.88-17.73-12.88,0,0-9.03,8.03-34.63,9.03-29.08,1.14-65.79-6.8-64.24-31.62-17.73-31.24-21.06-73.47-7.19-111.42Z"/>
          <path d="M296.06,67.93c1.15-3.45,2.76-6.72,4.9-9.63,1.33-1.81,2.71-3.29,3.42-2.82,7.87,4.01,21.83,14.49,37.15,31.77,3.26,3.34,6.39,6.83,9.27,10.44,1.51-.35,3-.67,4.47-.96,4.36-.94,11.78-2.13,21.31-2.09,9.53-.03,16.95,1.15,21.31,2.09,1.47.28,2.96.6,4.47.96,2.88-3.61,6.01-7.1,9.27-10.44,15.32-17.28,29.28-27.76,37.15-31.77.71-.47,2.09,1.01,3.42,2.82,2.14,2.91,3.75,6.18,4.9,9.63,12.12,36.45,15.86,94.02,1.77,125.76-15.17,34.18-40.6,38.83-57.54,39.67-8.24.77-16.72.83-24.75.69-8.03.14-16.51.08-24.75-.69-16.94-.83-42.37-5.49-57.54-39.67-14.09-31.74-10.35-89.31,1.77-125.76Z"/>
        </g>
        <path d="M385.99,196.35c-1.95.54-3.57,2-3.99,3.98-.44,2.07-1.19,3.69-2.19,3.98-1.98.58-3.36-1.28-4.03-4.03-.49-2.02-2.01-3.61-4.02-4.12-2.55-.65-4.57-1.62-5.34-2.83-3.06-4.79,4.4-7.85,12.64-7.47,9.09.42,15.13,3.83,10.53,8.62-.8.83-2.07,1.45-3.61,1.87Z" style="fill: #494343;"/>
        <path d="M333.94,189.65c-19.66-2.81-21.19-18.82-21.19-18.82,0-16.34,14.04-27.07,25.28-24.51,11.23,2.55,19.41,11.23,18.64,33.96-2.81,4.85-13.95,10.62-22.72,9.37Z" style="fill: #ffec5f;"/>
        <path d="M421.31,189.65c-8.77,1.25-19.92-4.52-22.72-9.37-.77-22.72,7.4-31.41,18.64-33.96,11.23-2.55,25.28,8.17,25.28,24.51,0,0-1.53,16.01-21.19,18.82Z" style="fill: #ffec5f;"/>
        <path d="M339.45,182.04c-5.76.34-11.85-7.47-11.72-15.01.16-8.94,5.54-13.64,11.72-12.28,5.44,1.2,9.18,6.11,9.18,13.64s-4.12,13.34-9.18,13.64Z"/>
        <path d="M414.68,182.04c-5.07-.3-9.18-6.11-9.18-13.64s3.75-12.44,9.18-13.64c6.18-1.36,11.56,3.33,11.72,12.28.13,7.53-5.96,15.35-11.72,15.01Z"/>
      </g>
      <g>
        <g>
          <path d="M255.26,447.16c-22.43-2.92,10.66,1.41,0,0-23.63-3.08-47.75-3.77-71.25.7-17.7,3.36-36.02,9.42-49.51,21.84-14.4,13.26-22.44,31.81-12.36,52.65,8.66,17.9,35.06,25.52,50.74,20.96,9.27-2.69,11.72-7.99,10.18-14.14-1.3-5.21-6.6-7.35-11.19-9.63-16.2-8.03-22.04-18.53-3.14-26.73,5.12-2.22,10.44-4.01,15.85-5.34,11.43-2.81,24.2-3.12,35.94-3.48,6.1-.19,12.17.05,18.24.67,5.34.55,21.63,2,31.1,3.53,8.7,1.41,1.27-12.19,1.82-21.03.61-9.72-6.76-18.74-16.42-20.02Z"/>
          <path d="M220.46,348.27c25.43-69.59,81.64-91.68,96.53-142.03,3.19,3.55,79.64,20.29,95.74-3.79-4.09,26.55,17.79-24.51,21.86,16,13.05,129.98-10.71,204.09-12.71,245.25,0,0,16.34,25.42-9.37,32.12-22.47,4.51-32.95-4.68-34.29-13.05,0,0,.08,18.74-33.96,12.38-15.22-2.84-17.73-12.88-17.73-12.88,0,0-9.03,8.03-34.63,9.03-29.08,1.14-65.79-6.8-64.24-31.62-17.73-31.24-21.06-73.47-7.19-111.42Z"/>
          <path d="M295.78,67.93c1.15-3.45,2.76-6.72,4.9-9.63,1.33-1.81,2.71-3.29,3.42-2.82,7.87,4.01,21.83,14.49,37.15,31.77,3.26,3.34,6.39,6.83,9.27,10.44,1.51-.35,3-.67,4.47-.96,4.36-.94,11.78-2.13,21.31-2.09,9.53-.03,16.95,1.15,21.31,2.09,1.47.28,2.96.6,4.47.96,2.88-3.61,6.01-7.1,9.27-10.44,15.32-17.28,29.28-27.76,37.15-31.77.71-.47,2.09,1.01,3.42,2.82,2.14,2.91,3.75,6.18,4.9,9.63,12.12,36.45,15.86,94.02,1.77,125.76-15.17,34.18-40.6,38.83-57.54,39.67-8.24.77-16.72.83-24.75.69-8.03.14-16.51.08-24.75-.69-16.94-.83-42.37-5.49-57.54-39.67-14.09-31.74-10.35-89.31,1.77-125.76Z"/>
        </g>
        <path d="M227.75,410.87c4-12.42,14.7-16.1,20.09-16.1.31,0,.6.01.88.04h0c9.02.77,13.57,4.2,15.69,11.84,1.5,5.41.65,21.23-6.28,30.9-3.28,4.58-7.44,7.05-12.36,7.33-5.97.36-10.69-1.68-14.05-6.03-5.66-7.32-6.47-20.23-3.97-27.99Z" style="fill: #fffdfd;"/>
        <path d="M322.37,248.99c-2.09,2.87-3.94,5.86-6.11,8.63-1.21,1.54-3.5,1.89-5.09.74-1.42-1.02-2.78-2.1-4.07-3.25-.22-.2-.58-.55-.97-.94-1.22-1.21-1.36-3.14-.34-4.52,4.9-6.64,7.83-10.02,11.82-17.29h0c1.32-2.98,3.06-3.22,4.74-2.89,1.71.34,2.67.9,4.5,1.91,1.58.88,3.21,2.94,2.23,5.26-.01.03-2.12,6.05-6.71,12.35Z" style="fill: #fff;"/>
        <path d="M302.09,162.45c4.12-37.71,46.76-51.52,75.1-49.66,28.35-1.86,71.12,11.95,75.25,49.66,4.12,37.71-23.78,47.56-45.11,44.3,0,0-1.84,9.7-7.66,12.45-1.05.49-3.28-1.56-3.88-2.29-3.89-4.64-3.51-6.4-6.12-6.03-2.87.4-6.84.83-12.45.83s-9.44-.43-12.31-.83c-2.61-.36-2.23,1.39-6.12,6.03-.61.73-2.84,2.78-3.88,2.29-5.82-2.75-7.66-12.45-7.66-12.45-21.33,3.26-49.28-6.58-45.16-44.3Z" style="fill: #fff;"/>
        <path d="M331.53,187.64c5.29.76,13.45.97,18.12-1.64,4.29-2.4,6.82-7.12,6.59-12.03-.85-18.06-8.48-25.34-18.61-27.65-10.72-2.44-24.01,7.22-25.19,22.32-.13,1.69.04,3.37.53,4.99,1.44,4.72,4.08,11.95,18.56,14.01Z"/>
        <path d="M384.81,197.09c-1.96,1.05-4.31,1.63-6.03,1.88-3.27.47-9-2.71-10.16-5.89-1.9-5.21,6.99-5.36,10.12-5.21,2.91.14,10.73.58,9.74,5.09-.4,1.83-1.88,3.18-3.67,4.13Z"/>
        <path d="M423.04,187.64c-5.29.76-13.45.97-18.12-1.64-4.29-2.4-6.82-7.12-6.59-12.03.85-18.06,8.48-25.34,18.61-27.65,10.72-2.44,24.01,7.22,25.19,22.32.13,1.69-.04,3.37-.53,4.99-1.44,4.72-4.08,11.95-18.56,14.01Z"/>
        <path d="M377.38,227.06c5.86-.06,11.36-1.36,15.26-3.57-1.15-1.06-2.28-2.32-3.41-3.8-.67-.88-1.75-1.32-2.85-1.16-1.46.22-2.87.37-4.24.45l-.27.02c-1.02.06-3.13.19-4.4.19-1.63,0-4.21-.15-5.06-.2-1.37-.08-2.78-.23-4.24-.45-1.09-.17-2.18.28-2.85,1.16-1.12,1.47-2.25,2.73-3.4,3.79,3.92,2.18,9.58,3.52,15.45,3.57Z" style="fill: #fff;"/>
        <path d="M247.9,325.63c-1.71-1.08-2.26-3.34-1.19-5.06,3.14-5.04,6.52-9.95,10.12-14.69.79-1.05,1.6-2.08,2.42-3.11,1.57-1.97,4.57-1.84,5.99.25.4.59.81,1.16,1.23,1.72.81,1.07,1.66,2.1,2.54,3.09,1.16,1.3,1.21,3.22.18,4.62-3.7,4.99-7.23,10.11-10.49,15.37-1.05,1.69-3.23,2.27-4.96,1.29-2.13-1.2-4.15-2.42-5.85-3.49Z" style="fill: #fff;"/>
        <path d="M230.95,353.2c2.35-6.81,5.22-13.44,8.51-19.88.98-1.92,3.41-2.54,5.24-1.4,1.7,1.06,3.61,2.2,5.6,3.32,1.73.97,2.34,3.14,1.45,4.91-2.87,5.66-5.34,11.47-7.33,17.43-.64,1.92-2.66,3-4.6,2.42-2.45-.74-4.72-1.48-6.6-2.15-1.9-.67-2.93-2.75-2.27-4.65Z" style="fill: #fff;"/>
        <path d="M253.13,473.43l-.64-22.36c-.05-1.66-1.45-3.02-3.1-2.92-1.6.05-2.88,1.34-2.92,2.92-4.35-3.7-10-6-15.93-6.25-1.65-.09-3.07,1.22-3.14,2.88-.07,1.66,1.22,3.07,2.88,3.14,7.14.3,13.72,4.41,16.75,10.45l6.09,12.14Z"/>
        <path d="M215.44,459.48c-1.07-2.44.49-5.19,3.14-5.5,3.8-.44,7.5-1.21,10.93-2.65.17-.07.33-.14.48-.22,2.09-1.01,4.46-1.07,6.68-.39,2.79.86,5.19,1.16,6.98,1.22,1.76.07,2.85,1.99,2.03,3.56-4.5,8.6-14.49,11.86-24.06,13.07-2.01.25-3.87-1.11-4.28-3.1-.37-1.8-.96-3.86-1.9-5.99Z" style="fill: #fff;"/>
        <path d="M183.31,457.36c6.81-1.35,13.44-2.14,19.3-2.48,1.34-.08,3.17.7,4.04,1.73,3.17,3.77,4.45,7.93,4.95,10.9.16.93-.57,1.77-1.51,1.81-7.65.32-14.79.87-21.96,2.08-1.49.25-2.96-.64-3.3-2.11-.61-2.64-1.67-5.58-3.22-8.21-.88-1.49.01-3.39,1.71-3.72Z" style="fill: #fff;"/>
        <path d="M154.68,474.48c-.73-.69-1.48-1.3-2.27-1.85-1.67-1.17-1.49-3.73.29-4.71,5.46-3.02,11.53-5.45,17.77-7.36,1.41-.43,2.97-.07,3.99.98,1.9,1.95,3.23,4.92,4.04,7.57.67,2.18-.58,4.47-2.77,5.08-1.11.31-2.23.64-3.36,1-3.03.97-6.27,2.32-9.41,4.04-1.85,1.02-4.12.45-5.32-1.29-.85-1.23-1.85-2.41-2.97-3.47Z" style="fill: #fff;"/>
        <path d="M148,494.03c-.75,1.7-2.56,2.66-4.42,2.47-2.05-.21-4.27-.09-6.5.49l-2.61.68c-2.1.55-4.04-1.3-3.63-3.43,1.32-6.84,4.81-12.62,9.71-17.46.9-.88,2.16-1.36,3.41-1.21,2.86.36,5.09,1.9,6.56,3.29,1.04.98,1.91,2.09,2.6,3.19,1.02,1.64.67,3.76-.63,5.18-1.87,2.05-3.42,4.31-4.51,6.79Z" style="fill: #fff;"/>
        <g>
          <path d="M150.57,522.92c1.97-2.23,3.79-2.7,4.68-2.76,1.63-.1,4.05,1.34,5.46,2,1.91.9,4.59,1.43,6.28,2.77,2.94,2.33,1.64,6.98-1.91,7.74-4.4.94-9.8-.2-14.48-2.04-1.31-.52-2.12-1.85-1.9-3.25.27-1.72,1.07-3.57,1.86-4.46Z" style="fill: #fff;"/>
          <path d="M138.6,502.81c1.84-.48,3.68-.47,5.27-.21,1.4.23,2.43,1.42,2.62,2.83.02.18.05.36.08.54.39,2.47,1.28,4.66,2.5,6.61.9,1.42.5,3.27-.83,4.31-.78.6-1.51,1.28-2.17,2.03-1.26,1.42-2.18,2.97-2.77,4.59-.47,1.31-2.17,1.69-3.19.74-3.95-3.66-6.84-8.34-8.37-13.56-.22-.73-.18-1.53.15-2.22,1.4-2.96,3.65-4.87,6.72-5.67Z" style="fill: #fff;"/>
        </g>
        <g>
          <path d="M302.9,260.52c5.27,5.35,11.65,9.4,18.34,12.74,3.73,1.86,7.57,3.51,11.46,5.01,1.79.69,4,1.16,5.65,2.17,3.42,2.1,1.06,4.75-2.63,5.59-3.79.86-7.6.52-11.38-.17-7.53-1.38-12.05-2.88-21.37-8.37-1.9-1.12-5.45-4.23-6.8-1.2-1.04,2.33,3.23,6.44,5.02,7.89,6.77,5.49,13.45,7.86,20.86,10.7,3.73,1.43,7.58,2.53,11.43,3.61,2.43.68,8.43,1.46,9.64,4.2,1.54,3.5-4.93,5.08-7.13,5.47-3.99.71-8.15.46-12.12-.19-5.2-.85-10.26-2.5-15.08-4.61-3.82-1.67-5.76-2.63-9.74-5.19-3.32-2.14-5.98-4.1-9.13-6.66-3.28-2.67-5.97.14-4.09,3.44,1.99,3.5,4.82,6.11,7.9,8.66,6.69,5.52,12.72,8.24,20.28,10.77,3.86,1.29,7.82,2.27,11.8,3.13,3.28.71,6.84,1.11,9.97,2.36,1.71.69,4.56,2.82,2.53,4.75-2.16,2.05-7.93,2.46-10.62,2.57-16.48.71-32.77-5.92-45.55-16.17-3.65-2.93-7-6.23-9.81-9.97-1.95-2.59-5.92-6.69-4.55-10.21.78-2.02,2.98-3.82,4.4-5.43,2.05-2.34,4.1-4.67,6.15-7.01,4.27-4.87,8.55-9.74,12.83-14.6,1.54-1.75,3.03-3.54,4.62-5.24,2.96-3.18,4.89-.36,7.13,1.97,1.63,1.65-.81-.84,0,0Z" style="fill: #fffdfd;"/>
          <path d="M338.72,324.39h0c-.03.09-.08.27-.08.21.01-.07.04-.14.08-.21Z" style="fill: #fffdfd;"/>
        </g>
        <path d="M367.32,291.65c.71,10.74-.15,47.53.01,53.23,0,0,7.69,3.62,6.8,9.95-.89,6.33-8.95,7.05-13.15,2.55,0,0-7.04,4.94-11.07-1.73-4.41-7.3,5.82-10.84,5.82-10.84,0,0,.31-48.11-.63-52.5,0,0-5.51-1.28-6.3-7.34-.79-6.05,8.01-8.76,11.82-2.93,0,0,7-8.63,11.79-1.93,5.09,7.12-5.09,11.54-5.09,11.54Z" style="fill: #fffdfd;"/>
        <path d="M365.73,381.92c.7,10.58-1.7,62.12-2.03,67.72,0,0,7.54,3.91,6.2,10.06-1.34,6.15-10,6.52-13.79,1.79,0,0-7.27,4.34-10.75-2.51-3.8-7.49,5.95-10.17,5.95-10.17,0,0,3.08-62.29,2.08-66.61,0,0-4.95-1.31-5.69-7.27-.74-5.97,7.18-8.77,11.87-2.93,0,0,6.74-8.33,11.41-1.7,4.97,7.05-5.24,11.62-5.24,11.62Z" style="fill: #fffdfd;"/>
        <path d="M321.88,381.61c-11.53,33.36-31.52,60.56-34.37,65.39,0,0,4.93,6.92.93,11.78s-11.87,1.24-13.09-4.69c0,0-8.45.54-8.42-7.14.04-8.4,9.93-6.33,9.93-6.33,0,0,24.91-34.43,33.17-62.46,0,0-4.33-2.74-3.23-8.65,1.1-5.91,9.49-6.19,12.2.79,0,0,7.46-6.1,11.4,1.82,2.61,8.22-8.5,9.5-8.5,9.5Z" style="fill: #fffdfd;"/>
        <path d="M272.65,477.75s-4.59,2.39-9.49.04c-7.7-3.68-3.51-12.71.63-15.6,5.55-3.87,12.42,2.26,11.92,5.9,0,0,6.65,1.76,19.82,3.01,2.95.28,11.58,1.21,10.08,5.14-.92,2.39-11.54,7.19-32.96,1.51Z" style="fill: #fffdfd;"/>
        <path d="M400.94,380.98c-1.21,10.31-7.18,62.64-7.43,68.13,0,0-8.13,3.05-7.38,9.17.75,6.12,9.17,7.27,13.29,3,0,0,7.6,5.34,11.52-.08,3.86-8.77-5.27-11.65-5.27-11.65,0,0,5.89-63.15,7-67.33,0,0,5.38-.96,6.44-6.76,1.06-5.79-7.29-8.83-11.25-3.41,0,0-6.32-8.65-11.26-2.44-5.26,6.62,4.34,11.37,4.34,11.37Z" style="fill: #fffdfd;"/>
        <path d="M415.73,292.51c.88,10.38-1.63,47.79-1.84,53.29,0,0,7.24,4.1,6.04,10.17-1.2,6.07-8.78,6.48-12.59,1.9,0,0-7.65,5.41-11.19-1.25-3.87-7.29,5.65-10.1,5.65-10.1,0,0,2.88-49.28,1.82-53.51,0,0-4.89-1.19-5.73-7.04-.84-5.85,6.89-8.74,11.6-3.1,0,0,6.47-8.31,11.18-1.89,5.01,6.83-4.93,11.51-4.93,11.51Z" style="fill: #fffdfd;"/>
        <path d="M390.33,479.6c.33,3.98,4.92,7.01,13.17,5.99,6.49-.8,11.92-4.79,10.74-8.49-1.22-3.82-4.64-5.88-12.41-5.23-8.1.68-11.83,3.75-11.5,7.73Z" style="fill: #fffdfd;"/>
        <path d="M366.52,480.04c-.38,3.98-5,6.98-13.24,5.91-6.48-.85-11.87-4.87-10.65-8.56,1.26-3.81,4.7-5.85,12.47-5.15,8.09.73,11.8,3.82,11.42,7.8Z" style="fill: #fffdfd;"/>
        <path d="M236.14,390.29c-1.57.86-3.82,2.32-6.26,4.68-2.35,2.27-6.27.53-6.19-2.73v-.1c.22-8.4,1.32-16.64,3.17-24.68.5-2.17,2.72-3.45,4.82-2.71,2.02.71,4.26,1.42,6.55,2.1,1.86.55,3,2.45,2.55,4.34-1.25,5.28-1.92,11.79-2.22,15.38-.13,1.58-1.03,2.97-2.42,3.73Z" style="fill: #fff;"/>
        <path d="M239.37,431.29c2.69,2.8,6.93,3.33,10.44-.49,2.76-3.01,2.97-7.96.03-10.24-3.03-2.36-6.07-2.6-9.58.77-3.65,3.51-3.59,7.16-.9,9.96Z"/>
        <path d="M353.85,246.07c8.51,5.06,13.69,7.17,24.77,11.41,4.8,1.84-.16,9.29-21.68,7.01-20.49-2.17-25.22-8.22-21.35-15,4.24-7.42,5.38-11.08,18.25-3.42Z" style="fill: #fffdfd;"/>
        <path d="M413.18,245.74c-6,5.21-11.78,8.19-19.4,13.04-3.59,2.28,6.85,7.17,19.11,5.37,14.75-2.17,17.56-9.45,14.96-16.29-2.65-6.96-5.59-10-14.67-2.12Z" style="fill: #fffdfd;"/>
        <path d="M256.9,385.62c17.77-22.38,33.74-32.22,36.95-35.34,0,0-2.87-7.82,2.17-11.38,5.04-3.56,11.55,1.9,11.16,7.83,0,0,8.13,1.68,6.11,8.93-3.66,7.28-11.03,3.42-11.03,3.42,0,0-19.62,12.95-35.37,32.25-1.12,1.38-3.07,1.61-4.55.63-1.34-.89-2.81-1.64-4.41-2.25-1.64-.62-2.12-2.71-1.03-4.08Z" style="fill: #fffdfd;"/>
      </g>
    </g>
  </g>
</svg>